<svg width="28" height="28" viewBox="0 0 28 28" fill="none" xmlns="http://www.w3.org/2000/svg">
    <path d="M9.99907 13H2.99637C2.20712 13.0035 1.44867 12.6898 0.887078 12.1275C0.325487 11.5652 0.00651539 10.8002 0 10L0 3.00004C0.00651586 2.19932 0.325895 1.43389 0.888126 0.871534C1.45036 0.309177 2.20957 -0.00421968 2.99933 4.29199e-05H10.002C10.7918 -0.00421968 11.551 0.309177 12.1132 0.871534C12.6755 1.43389 12.9948 2.19932 13.0014 3.00004V10C12.9948 10.8008 12.6755 11.5662 12.1132 12.1286C11.551 12.6909 10.7918 13.0043 10.002 13H9.99907ZM2.99933 2.00004C2.73624 1.99897 2.48344 2.10358 2.29621 2.29097C2.10898 2.47837 2.00255 2.73331 2.00021 3.00004V10C2.00255 10.267 2.10911 10.522 2.29656 10.7095C2.484 10.8969 2.73706 11.0014 3.00031 11H10.003C10.2663 11.0014 10.5193 10.8969 10.7068 10.7095C10.8942 10.522 11.0008 10.267 11.0031 10V3.00004C11.0008 2.73313 10.8942 2.47804 10.7068 2.29062C10.5193 2.10319 10.2663 1.99871 10.003 2.00004H2.99933Z"
          fill="#5D82D5"/>
    <path d="M4.99922 4.00002H7.99855C8.12898 3.9991 8.25831 4.02424 8.37916 4.07399C8.50001 4.12375 8.61001 4.19715 8.70287 4.29001C8.79574 4.38287 8.86966 4.49337 8.92041 4.61519C8.97116 4.73702 8.99775 4.86778 8.99865 5.00002V8.00002C8.99775 8.13227 8.97116 8.26303 8.92041 8.38486C8.86966 8.50668 8.79574 8.61718 8.70287 8.71004C8.61001 8.8029 8.50001 8.8763 8.37916 8.92606C8.25831 8.97581 8.12898 9.00095 7.99855 9.00002H4.99922C4.86879 9.00095 4.73946 8.97581 4.61861 8.92606C4.49776 8.8763 4.38776 8.8029 4.29489 8.71004C4.20202 8.61718 4.1281 8.50668 4.07735 8.38486C4.0266 8.26303 4.00002 8.13227 3.99911 8.00002V5.00002C4.00002 4.86778 4.0266 4.73702 4.07735 4.61519C4.1281 4.49337 4.20202 4.38287 4.29489 4.29001C4.38776 4.19715 4.49776 4.12375 4.61861 4.07399C4.73946 4.02424 4.86879 3.9991 4.99922 4.00002Z"
          fill="#5D82D5"/>
    <path d="M19.9979 19H22.9972C23.1276 18.9991 23.257 19.0242 23.3778 19.074C23.4987 19.1237 23.6087 19.1972 23.7015 19.29C23.7944 19.3829 23.8683 19.4934 23.9191 19.6152C23.9698 19.737 23.9964 19.8678 23.9973 20V23C23.9964 23.1323 23.9698 23.263 23.9191 23.3849C23.8683 23.5067 23.7944 23.6172 23.7015 23.71C23.6087 23.8029 23.4987 23.8763 23.3778 23.9261C23.257 23.9758 23.1276 24.0009 22.9972 24H19.9979C19.8674 24.0009 19.7381 23.9758 19.6173 23.9261C19.4964 23.8763 19.3864 23.8029 19.2935 23.71C19.2007 23.6172 19.1268 23.5067 19.076 23.3849C19.0253 23.263 18.9987 23.1323 18.9978 23V20C18.9987 19.8678 19.0253 19.737 19.076 19.6152C19.1268 19.4934 19.2007 19.3829 19.2935 19.29C19.3864 19.1972 19.4964 19.1237 19.6173 19.074C19.7381 19.0242 19.8674 18.9991 19.9979 19Z"
          fill="#5D82D5"/>
    <path d="M9.99907 28H2.99637C2.20712 28.0035 1.44867 27.6898 0.887078 27.1275C0.325487 26.5652 0.00651539 25.8002 0 25L0 18C0.00651586 17.1993 0.325895 16.4339 0.888126 15.8715C1.45036 15.3092 2.20957 14.9958 2.99933 15H10.002C10.7918 14.9958 11.551 15.3092 12.1132 15.8715C12.6755 16.4339 12.9948 17.1993 13.0014 18V25C12.9948 25.8008 12.6755 26.5662 12.1132 27.1286C11.551 27.6909 10.7918 28.0043 10.002 28H9.99907ZM2.99933 17C2.73599 16.9984 2.48279 17.1028 2.29529 17.2903C2.10779 17.4778 2.00131 17.7331 1.99922 18V25C2.00131 25.267 2.10779 25.5223 2.29529 25.7098C2.48279 25.8972 2.73599 26.0016 2.99933 26H10.002C10.2654 26.0016 10.5186 25.8972 10.7061 25.7098C10.8936 25.5223 11.0001 25.267 11.0021 25V18C11.0001 17.7331 10.8936 17.4778 10.7061 17.2903C10.5186 17.1028 10.2654 16.9984 10.002 17H2.99933Z"
          fill="#5D82D5"/>
    <path d="M24.9977 13H17.995C17.2057 13.0035 16.4473 12.6898 15.8857 12.1275C15.3241 11.5652 15.0051 10.8002 14.9986 10V3.00004C15.0051 2.19932 15.3245 1.43389 15.8868 0.871534C16.449 0.309177 17.2082 -0.00421968 17.998 4.29199e-05H25.0007C25.7904 -0.00421968 26.5496 0.309177 27.1119 0.871534C27.6741 1.43389 27.9935 2.19932 28 3.00004V10C27.9935 10.8008 27.6741 11.5662 27.1119 12.1286C26.5496 12.6909 25.7904 13.0043 25.0007 13H24.9977ZM17.998 2.00004C17.7347 1.99871 17.4816 2.10319 17.2942 2.29062C17.1068 2.47804 17.0002 2.73313 16.9979 3.00004V10C17.0002 10.267 17.1068 10.522 17.2942 10.7095C17.4816 10.8969 17.7347 11.0014 17.998 11H25.0007C25.2639 11.0014 25.517 10.8969 25.7044 10.7095C25.8919 10.522 25.9984 10.267 26.0008 10V3.00004C25.9984 2.73313 25.8919 2.47804 25.7044 2.29062C25.517 2.10319 25.2639 1.99871 25.0007 2.00004H17.998Z"
          fill="#5D82D5"/>
    <path d="M24.9977 28H17.995C17.2057 28.0035 16.4473 27.6898 15.8857 27.1275C15.3241 26.5652 15.0051 25.8002 14.9986 25V18C15.0051 17.1993 15.3245 16.4339 15.8868 15.8715C16.449 15.3092 17.2082 14.9958 17.998 15H25.0007C25.7904 14.9958 26.5496 15.3092 27.1119 15.8715C27.6741 16.4339 27.9935 17.1993 28 18V25C27.9935 25.8008 27.6741 26.5662 27.1119 27.1286C26.5496 27.6909 25.7904 28.0043 25.0007 28H24.9977ZM17.998 17C17.7346 16.9984 17.4814 17.1028 17.2939 17.2903C17.1064 17.4778 16.9999 17.7331 16.9979 18V25C16.9999 25.267 17.1064 25.5223 17.2939 25.7098C17.4814 25.8972 17.7346 26.0016 17.998 26H25.0007C25.264 26.0016 25.5172 25.8972 25.7047 25.7098C25.8922 25.5223 25.9987 25.267 26.0008 25V18C25.9987 17.7331 25.8922 17.4778 25.7047 17.2903C25.5172 17.1028 25.264 16.9984 25.0007 17H17.998Z"
          fill="#5D82D5"/>
</svg>
