<svg xmlns="http://www.w3.org/2000/svg" fill="none" viewBox="0.81 0.17 5.7 9.09">
    <path d="M2.71801 5.20201L2.72901 5.10201C2.72152 4.9519 2.74421 4.80181 2.79574 4.66062C2.84727 4.51943 2.92659 4.39001 3.02901 4.28001C3.20481 4.09144 3.42785 3.95333 3.67501 3.88001C3.90997 3.81433 4.12978 3.70324 4.32201 3.55301C4.41857 3.4813 4.4963 3.38726 4.54855 3.27893C4.6008 3.1706 4.62601 3.05122 4.62201 2.93101C4.62864 2.81948 4.61226 2.70777 4.5739 2.60284C4.53554 2.4979 4.47601 2.40197 4.39901 2.32101C4.21262 2.16239 3.97102 2.08402 3.72701 2.10301C3.49871 2.08734 3.27054 2.13547 3.06801 2.24201C2.95271 2.30597 2.86169 2.40613 2.80901 2.52701L2.77301 2.67101C2.71739 2.84588 2.6288 3.00847 2.51201 3.15001C2.46532 3.20306 2.40751 3.24517 2.3427 3.27334C2.27788 3.30151 2.20766 3.31506 2.13701 3.31301C1.93002 3.29977 1.72695 3.25036 1.53701 3.16701C1.05301 2.98168 0.811346 2.75234 0.812013 2.47901C0.81312 2.35253 0.837879 2.22738 0.885013 2.11001C0.934013 1.98501 0.973013 1.88001 1.00501 1.79601C1.07848 1.64193 1.16549 1.49469 1.26501 1.35601C1.55905 0.898109 1.99811 0.552001 2.51201 0.373011C2.86237 0.236115 3.23589 0.168204 3.61201 0.173011C3.99842 0.158212 4.3837 0.22361 4.74358 0.365083C5.10346 0.506556 5.43013 0.721037 5.70301 0.995011C5.95994 1.24197 6.16411 1.53847 6.30316 1.8666C6.44222 2.19472 6.51327 2.54764 6.51201 2.90401C6.51518 3.23378 6.45121 3.56075 6.32401 3.86501C6.22183 4.12506 6.06769 4.36155 5.87101 4.56001C5.58965 4.85012 5.25257 5.0804 4.88001 5.23701L4.68701 5.29701C4.6892 5.40235 4.68285 5.5077 4.66801 5.61201C4.65044 5.69775 4.61312 5.77821 4.55901 5.84701C4.48364 5.94101 4.37731 6.00516 4.25901 6.02801C4.07431 6.06936 3.88522 6.08783 3.69601 6.08301C3.50678 6.08827 3.31771 6.06775 3.13401 6.02201C3.01157 5.99747 2.90376 5.92559 2.83401 5.82201C2.78503 5.7422 2.75113 5.65407 2.73401 5.56201C2.71928 5.44395 2.71327 5.32496 2.71601 5.20601L2.71801 5.20201ZM2.66901 7.35801C2.74356 7.22533 2.86759 7.12754 3.01401 7.08601C3.26798 7.01902 3.5306 6.9907 3.79301 7.00201C4.06981 6.97635 4.34552 7.06119 4.56001 7.23801C4.74949 7.50202 4.83364 7.82723 4.79601 8.15001C4.81015 8.39605 4.7688 8.64211 4.67501 8.87001C4.63872 8.94513 4.58715 9.01185 4.52362 9.06591C4.46008 9.11998 4.38597 9.1602 4.30601 9.18401C4.05529 9.24599 3.79708 9.27225 3.53901 9.26201C3.24992 9.28214 2.96396 9.19171 2.73901 9.00901C2.58186 8.81138 2.50795 8.56026 2.53301 8.30901V8.11501C2.53052 7.97378 2.53653 7.83252 2.55101 7.69201C2.56934 7.57508 2.60827 7.46233 2.66601 7.35901L2.66901 7.35801Z"
          fill="#5D82D5"/>
</svg>
